SplineFontDB: 3.0
FontName: MyGaramond
FullName: MyGaramond
FamilyName: MyGaramond
Weight: Regular
Copyright: Created by trashman with FontForge 2.0 (http://fontforge.sf.net)
UComments: "2010-10-15: Created." 
Version: 001.000
ItalicAngle: 0
UnderlinePosition: -100
UnderlineWidth: 50
Ascent: 740
Descent: 260
LayerCount: 3
Layer: 0 0 "Back"  1
Layer: 1 0 "Fore"  0
Layer: 2 0 "backup"  0
NeedsXUIDChange: 1
XUID: [1021 658 797806517 11800223]
OS2Version: 0
OS2_WeightWidthSlopeOnly: 0
OS2_UseTypoMetrics: 1
CreationTime: 1287179752
ModificationTime: 1287923082
OS2TypoAscent: 0
OS2TypoAOffset: 1
OS2TypoDescent: 0
OS2TypoDOffset: 1
OS2TypoLinegap: 0
OS2WinAscent: 0
OS2WinAOffset: 1
OS2WinDescent: 0
OS2WinDOffset: 1
HheadAscent: 0
HheadAOffset: 1
HheadDescent: 0
HheadDOffset: 1
OS2Vendor: 'PfEd'
MarkAttachClasses: 1
DEI: 91125
Encoding: UnicodeBmp
UnicodeInterp: none
NameList: Adobe Glyph List
DisplaySize: -48
AntiAlias: 1
FitToEm: 1
WinInfo: 84 12 4
BeginPrivate: 9
BlueValues 9 [698 713]
OtherBlues 11 [-227 -227]
BlueScale 8 0.039625
BlueShift 1 7
BlueFuzz 1 0
StdHW 4 [26]
StemSnapH 25 [17 21 26 35 43 48 63 78]
StdVW 4 [76]
StemSnapV 4 [76]
EndPrivate
BeginChars: 65537 64

StartChar: a
Encoding: 97 97 0
Width: 394
VWidth: -15
Flags: HW
HStem: -18 56<83.5 169.144> -16 66<287 346.386> 344 58<144.5 221.786>
VStem: 25 84<42.1104 121.231> 36 74<272.219 327.517> 235 75<73.5469 173.928> 239 81<201 319.391>
LayerCount: 3
Fore
SplineSet
236 179 m 1xb4
 194 160 110 138 110 85 c 0
 110 62 126 40 144 40 c 0
 170 40 192 55 209 67 c 0
 233 84 232 106 233 122 c 2
 236 179 l 1xb4
371 73 m 0
 377 73 384 67 384 61 c 0
 384 54 380 46 376 40 c 0
 360 13 330 -14 303 -14 c 0
 274 -14 242 0 235 46 c 0x64
 234 55 229 61 223 54 c 0
 186 16 157 -17 104 -17 c 0
 63 -17 26 16 26 72 c 0
 26 129 90 153 152 173 c 2
 238 201 l 1
 238 201 240 269 240 281 c 0xb2
 240 322 208 344 162 344 c 0
 126 344 112 321 110 296 c 0
 109 283 105 282 98 277 c 2
 62 255 l 2
 59 253 55 251 51 251 c 0
 47 251 36 261 36 282 c 0
 36 324 90 353 125 371 c 0
 153 385 184 401 214 401 c 0
 254 401 318 379 318 321 c 0xaa
 318 294 311 130 311 97 c 0
 311 69 316 50 336 50 c 0
 360 50 361 73 371 73 c 0
EndSplineSet
EndChar

StartChar: b
Encoding: 98 98 1
Width: 485
VWidth: -5
Flags: HW
HStem: -6 41<182.807 315.947> 357 3<145 236> 623 21<7 31.7927> 688 20G<123.5 146>
VStem: 61 25<-13 10.4085> 62 76<78.875 340.307 360.004 617.797> 379 81<120.541 272.739>
LayerCount: 3
Fore
SplineSet
267 405 m 0xf6
 370 405 458 323 458 211 c 0
 458 125 407 68 356 32 c 0
 321 8 272 -5 242 -5 c 0
 189 -5 159 5 108 18 c 0
 100 20 98 16 96 13 c 0
 83 -5 84 -13 69 -13 c 0
 63 -13 58 -12 58 11 c 0
 58 35 61 69 61 100 c 2
 59 557 l 2
 59 592 58 619 23 619 c 0
 13 619 4 622 4 634 c 0
 4 644 12 648 18 651 c 0
 49 664 92 684 120 699 c 0
 127 703 133 705 137 705 c 0
 142 705 147 701 145 689 c 0
 139 644 138 482 138 380 c 0
 138 366 137 360 145 360 c 0
 151 360 212 405 267 405 c 0xf6
141 314 m 2xf6
 141 141 l 2
 141 87 181 36 249 36 c 0
 333 36 379 114 379 189 c 0
 379 264 324 357 236 357 c 0
 194 357 141 341 141 314 c 2xf6
EndSplineSet
EndChar

StartChar: c
Encoding: 99 99 2
Width: 434
VWidth: 5
Flags: HW
HStem: -23 71<186.063 305.626> 369 39<169.4 281.126>
VStem: 26 81<126.508 274.111>
LayerCount: 3
Fore
SplineSet
250 407 m 0
 299 407 387 384 387 330 c 0
 387 302 359 288 337 288 c 0
 318 288 304 315 295 333 c 0
 285 353 264 371 229 371 c 0
 154 371 106 296 106 205 c 0
 106 112 185 48 266 48 c 0
 318 48 345 67 371 89 c 0
 377 94 381 98 385 98 c 0
 388 98 391 96 395 91 c 0
 400 83 399 80 399 77 c 0
 399 73 398 69 387 58 c 0
 358 30 296 -22 222 -22 c 0
 97 -22 26 70 26 168 c 0
 26 307 124 407 250 407 c 0
EndSplineSet
EndChar

StartChar: d
Encoding: 100 100 3
Width: 502
VWidth: 0
Flags: HW
HStem: -19 57<184.226 280.291> 22 23<447.382 484> 371 37<186.876 299.696>
VStem: 31 88<110.028 274.265> 345 76<63.2132 326.36 390.004 629.683>
LayerCount: 3
Fore
SplineSet
337 49 m 0
 303 19 263 -17 206 -17 c 0xb8
 95 -17 33 88 33 181 c 0
 33 291 118 407 255 407 c 0
 280 407 311 396 320 393 c 0
 327 390 332 388 336 388 c 0
 342 388 345 393 345 408 c 2
 345 578 l 2
 345 623 342 627 305 634 c 0
 293 636 282 637 282 649 c 0
 282 663 300 666 314 670 c 0
 344 679 377 692 402 705 c 0
 410 709 415 711 419 711 c 0
 426 711 428 703 428 685 c 0
 423 475 421 284 421 77 c 0
 421 47 428 43 442 43 c 0
 446 43 470 44 472 44 c 0
 481 44 483 42 483 36 c 0
 483 26 473 24 460 20 c 0
 431 13 400 2 369 -12 c 0
 361 -16 354 -20 349 -20 c 0
 344 -20 341 -16 341 -6 c 0
 341 -3 343 32 343 38 c 0
 343 45 344 55 337 49 c 0
245 38 m 0
 275 38 309 55 329 66 c 0
 343 74 345 81 345 90 c 2
 345 280 l 2
 345 301 343 309 322 333 c 0
 304 354 276 375 238 375 c 0
 164 375 114 285 114 208 c 0
 114 107 173 38 245 38 c 0
EndSplineSet
EndChar

StartChar: e
Encoding: 101 101 4
Width: 394
VWidth: -10
Flags: HW
HStem: -20 63<180.804 280.114> 226 27<109.439 274.564> 226 17<108 218.891> 366 32<162.848 249.502>
VStem: 28 77<120.716 223.602> 282 79<257.553 333.787>
LayerCount: 3
Fore
SplineSet
199 -15 m 0
 99 -15 24 79 24 177 c 0
 24 283 92 407 221 407 c 0
 305 407 360 343 360 248 c 2
 360 231 l 1
 103 233 l 1
 101 223 101 213 101 203 c 0
 101 110 172 52 237 52 c 0
 274 52 306 73 328 88 c 0
 339 95 347 100 354 92 c 0
 360 85 358 79 349 67 c 0
 323 33 266 -15 199 -15 c 0
222 261 m 2
 255 263 276 273 276 298 c 0
 276 338 244 370 203 370 c 0
 155 370 126 330 111 285 c 0
 108 276 104 267 104 262 c 0
 104 257 108 255 118 255 c 2
 222 261 l 2
EndSplineSet
EndChar

StartChar: f
Encoding: 102 102 5
Width: 334
VWidth: 0
Flags: HW
HStem: -4 32<30 114.396 203.069 301> 339 45<30 119 197 323> 610 81<251.261 335.397>
VStem: 121 74<36.3685 339 384 534.019>
LayerCount: 3
Fore
SplineSet
30 351 m 1
 30 398 l 1
 121 398 l 1
 121 444 125 515 147 560 c 0
 183 635 250 707 315 707 c 0
 323 707 363 705 363 663 c 0
 363 625 342 622 319 622 c 0
 298 622 271 626 256 626 c 0
 201 625 197 567 197 471 c 2
 197 398 l 1
 323 398 l 1
 323 351 l 1
 197 351 l 1
 197 70 l 2
 197 31 219 32 301 28 c 1
 301 -4 l 1
 242 -4 194 0 160 0 c 0
 124 0 79 -4 30 -4 c 1
 30 28 l 1
 102 30 121 33 121 70 c 2
 121 351 l 1
 30 351 l 1
EndSplineSet
EndChar

StartChar: g
Encoding: 103 103 6
Width: 474
VWidth: 0
Flags: HW
LayerCount: 3
Fore
SplineSet
81 -100 m 0
 81 -155 140 -197 202 -197 c 0
 269 -197 356 -163 356 -95 c 0
 356 -34 267 -15 198 -8 c 0
 181 -7 171 -6 156 -6 c 0
 134 -6 124 -13 111 -29 c 0
 94 -49 81 -78 81 -100 c 0
347 366 m 1
 460 366 l 1
 460 322 l 1
 376 321 l 1
 376 321 383 300 383 280 c 0
 383 199 305 136 209 136 c 0
 200 136 190 140 184 136 c 0
 166 125 152 114 152 102 c 0
 152 89 155 76 169 68 c 0
 181 61 200 59 220 58 c 0
 243 57 265 57 284 55 c 0
 353 49 429 18 429 -67 c 0
 429 -169 310 -231 203 -231 c 0
 93 -231 8 -188 8 -108 c 0
 8 -53 73 -26 108 0 c 0
 111 3 113 14 109 16 c 0
 93 26 62 65 62 90 c 0
 62 97 73 103 92 113 c 0
 115 126 144 139 151 143 c 0
 157 146 150 153 145 155 c 0
 87 181 62 224 62 281 c 0
 62 355 139 407 220 407 c 0
 284 407 314 392 347 366 c 1
141 285 m 0
 141 232 172 169 221 169 c 0
 277 169 304 212 304 279 c 0
 304 338 265 376 218 376 c 0
 163 376 141 329 141 285 c 0
EndSplineSet
EndChar

StartChar: h
Encoding: 104 104 7
Width: 507
VWidth: 0
Flags: HW
HStem: -4 26<19 77.1962 172.77 224 297 350.397 443.174 490> 344 53<233.628 328.681> 639 25<24 66.0125>
VStem: 85 87<459.902 637.112> 88 76<28.2302 313.695 341.464 618.119> 358 76<25.9661 314.66>
LayerCount: 3
Fore
SplineSet
165 287 m 2xec
 165 195 l 2
 165 150 167 104 168 57 c 0
 168 35 177 29 206 27 c 0
 221 26 230 21 230 9 c 0
 230 1 224 -4 210 -4 c 0
 190 -4 158 0 128 0 c 0
 97 0 67 -4 34 -4 c 0
 16 -4 12 1 12 14 c 0
 12 25 28 27 44 28 c 0
 74 30 83 39 84 66 c 0
 88 142 88 201 88 264 c 2
 88 344 l 2xec
 88 405 86 574 85 612 c 0
 84 635 71 639 38 639 c 0
 25 639 22 643 22 651 c 0
 22 663 30 669 42 672 c 0
 80 681 113 694 150 714 c 0
 158 718 160 720 165 720 c 0
 172 719 174 714 174 707 c 0
 174 702 172 683 172 678 c 0
 167 584 166 427 166 342 c 0
 166 326 175 331 181 337 c 0
 207 363 254 398 307 398 c 0
 384 398 437 345 437 268 c 2
 437 68 l 2
 437 32 443 34 470 27 c 0
 480 24 493 26 493 14 c 0
 493 6 487 -4 473 -3 c 0
 453 -2 428 0 402 0 c 0
 379 0 333 -4 310 -4 c 0
 298 -4 295 1 295 12 c 0
 295 22 298 23 310 25 c 0
 348 32 356 30 357 60 c 0
 358 98 358 128 358 159 c 2
 358 264 l 2
 358 322 320 349 268 349 c 0
 218 349 165 304 165 287 c 2xec
EndSplineSet
EndChar

StartChar: i
Encoding: 105 105 8
Width: 256
VWidth: 0
Flags: HW
HStem: -4 26<25 77.4195 184.865 234> 331 22<38 79.1658> 553 106<89.9539 174.046>
VStem: 80 104<562.913 649.764> 95 76<32.5099 323.862>
LayerCount: 3
Fore
SplineSet
94 73 m 0xe8
 95 116 95 160 95 204 c 0
 95 237 94 270 93 300 c 0
 92 316 84 318 59 326 c 0
 46 330 36 332 36 342 c 0
 36 353 46 355 59 358 c 0
 91 366 123 379 150 391 c 0
 155 393 159 395 163 395 c 0
 170 395 175 390 175 376 c 0
 175 355 171 89 171 71 c 0
 171 48 172 31 218 29 c 0
 233 28 240 24 240 14 c 0
 240 6 237 -4 218 -4 c 0
 186 -3 161 0 133 0 c 0
 103 0 73 -2 44 -2 c 0
 28 -2 22 0 22 10 c 0
 22 24 37 26 50 28 c 0
 85 32 93 47 94 73 c 0xe8
79 607 m 0xf0
 79 638 101 660 132 660 c 0
 163 660 185 638 185 607 c 0
 185 576 163 552 132 552 c 0
 101 552 79 576 79 607 c 0xf0
EndSplineSet
EndChar

StartChar: j
Encoding: 106 106 9
Width: 266
VWidth: 0
Flags: HW
HStem: 554 106<103.954 188.046>
VStem: 94 104<563.913 650.764> 103 91<129.663 318.691> 103 76<-103.928 317.784>
LayerCount: 3
Fore
SplineSet
88 607 m 0xf0
 88 638 110 660 141 660 c 0
 172 660 194 638 194 607 c 0
 194 576 172 552 141 552 c 0
 110 552 88 576 88 607 c 0xf0
95 298 m 2
 95 309 94 311 60 325 c 0
 49 330 49 343 60 346 c 0
 101 358 125 369 165 390 c 0
 169 392 173 394 176 394 c 0
 182 394 186 390 186 380 c 0
 186 372 176 319 176 290 c 2
 176 47 l 2
 176 -70 174 -144 22 -228 c 0
 13 -233 6 -235 0 -235 c 0
 -4 -235 -7 -233 -10 -228 c 0
 -12 -224 -13 -222 -13 -219 c 0
 -13 -212 -7 -207 3 -200 c 0
 64 -159 95 -110 95 -66 c 2
 95 298 l 2
EndSplineSet
EndChar

StartChar: k
Encoding: 107 107 10
Width: 531
VWidth: 0
Flags: HW
HStem: -4 26<35 94.6069 188.77 240 291 344.804 460.328 508> 368 26<262 313.327 394.521 457> 619 16<47 69.3949>
VStem: 106 74<28.7154 189.486 208.002 608.648>
LayerCount: 3
Fore
SplineSet
317 346 m 0
 317 362 300 369 262 369 c 1
 262 395 l 1
 286 395 336 391 361 391 c 0
 388 391 449 395 462 395 c 1
 462 369 l 1
 442 367 403 372 376 345 c 2
 298 268 l 2
 289 260 285 256 285 251 c 0
 285 246 289 241 296 232 c 0
 334 185 384 117 438 54 c 0
 456 34 456 26 512 22 c 1
 512 -4 l 1
 475 -4 432 0 398 0 c 0
 373 0 329 -4 291 -4 c 1
 291 22 l 1
 329 22 345 31 345 47 c 0
 345 60 277 140 242 185 c 0
 233 196 227 203 221 203 c 0
 216 203 210 197 199 191 c 0
 182 181 181 178 181 170 c 2
 181 65 l 2
 181 35 199 22 242 22 c 1
 242 -4 l 1
 206 -4 169 0 144 0 c 0
 108 0 73 -4 35 -4 c 1
 35 22 l 1
 78 22 105 33 105 65 c 2
 105 576 l 2
 105 600 90 623 45 627 c 1
 45 647 l 1
 103 661 128 679 172 707 c 1
 184 699 l 1
 181 660 181 609 181 560 c 2
 181 232 l 2
 181 212 181 214 184 214 c 0
 192 214 250 267 264 280 c 0
 293 308 317 333 317 346 c 0
EndSplineSet
EndChar

StartChar: l
Encoding: 108 108 11
Width: 257
VWidth: 0
Flags: HW
HStem: -4 26<25 78.4058 186.333 239> 635 25<35 69.7985>
VStem: 93 76<32.1519 334.151>
LayerCount: 3
Fore
SplineSet
167 71 m 0
 167 56 175 37 197 33 c 0
 228 27 242 23 242 10 c 0
 242 4 238 -4 226 -4 c 0
 215 -4 159 0 131 0 c 0
 109 0 71 -4 43 -4 c 0
 16 -4 16 3 16 9 c 0
 16 16 21 24 33 26 c 0
 77 34 90 40 90 79 c 0
 90 255 90 437 84 606 c 0
 83 634 84 632 49 638 c 0
 33 641 28 644 28 654 c 0
 28 666 38 668 51 672 c 0
 88 684 113 695 150 713 c 0
 155 716 160 718 164 718 c 0
 172 718 178 712 177 698 c 0
 168 576 167 246 167 71 c 0
EndSplineSet
EndChar

StartChar: m
Encoding: 109 109 12
Width: 798
VWidth: 0
Flags: WO
HStem: -3 33<18.252 85.0562 173.256 232.925 300.217 357.313 448.236 513.484 572.414 637.911 722.953 780.817> 340 61<239.545 339.186 508.881 620.371>
VStem: 90 80<36.125 314.573> 361 82<33.4649 310.798> 640 80<31.6075 318.263>
LayerCount: 3
Fore
SplineSet
361 241 m 2
 361 308 338 340 277 340 c 0
 242 340 211 330 189 313 c 0
 171 299 170 278 170 252 c 2
 170 71 l 2
 170 48 170 37 205 30 c 0
 219 27 234 21 234 8 c 0
 234 -2 226 -3 217 -3 c 0
 190 -3 155 0 128 0 c 0
 102 0 66 -2 42 -3 c 0
 23 -3 18 -2 18 10 c 0
 18 26 31 28 42 30 c 0
 90 38 90 47 90 73 c 2
 90 234 l 2
 90 263 90 279 88 300 c 0
 86 318 74 320 48 327 c 0
 35 330 28 334 28 344 c 0
 28 354 37 356 48 360 c 0
 75 369 118 386 148 400 c 0
 153 402 158 404 162 404 c 0
 167 404 170 401 170 389 c 0
 170 386 166 355 166 345 c 0
 166 336 169 334 172 334 c 0
 177 334 185 343 191 347 c 0
 228 373 262 401 313 401 c 0
 364 401 415 377 426 334 c 0
 429 324 431 319 434 319 c 0
 438 319 443 327 453 336 c 0
 483 363 525 401 579 401 c 0
 687 401 721 333 721 258 c 2
 720 81 l 2
 720 38 722 31 766 25 c 0
 777 24 781 22 781 10 c 0
 781 -2 776 -4 763 -4 c 0
 740 -4 706 0 678 0 c 0
 650 0 622 -2 595 -3 c 0
 581 -3 572 -3 572 9 c 0
 572 25 583 29 595 29 c 0
 640 31 640 41 640 73 c 2
 640 254 l 2
 640 288 634 342 552 342 c 0
 533 342 500 332 465 311 c 0
 443 298 443 289 443 254 c 2
 443 71 l 2
 443 40 458 32 486 29 c 0
 499 28 514 25 514 9 c 0
 514 -1 506 -4 494 -4 c 0
 470 -4 431 0 403 0 c 0
 373 0 335 -4 319 -4 c 0
 306 -4 300 0 300 11 c 0
 300 19 305 26 316 27 c 0
 360 33 361 46 361 73 c 2
 361 241 l 2
EndSplineSet
EndChar

StartChar: n
Encoding: 110 110 13
Width: 526
VWidth: 0
Flags: HW
LayerCount: 3
Fore
SplineSet
170 394 m 0
 170 388 162 344 162 341 c 0
 162 329 164 326 167 326 c 0
 170 326 177 327 183 332 c 0
 209.855066576 354.059518973 259.191668578 396.932086243 311.690170615 396.932086243 c 0
 401.034247201 396.932086243 446 347 446 253 c 2
 446 70 l 2
 446 32 449 35 486 28 c 0
 497 26 511 26 511 10 c 0
 511 -1 506 -3 495 -3 c 0
 492 -3 489 -3 486 -3 c 0
 456 -2 429 0 403 0 c 0
 372 0 341 -3 311 -3 c 0
 294 -3 291 -2 291 11 c 0
 291 24 297 27 311 29 c 0
 362 36 366 29 366 72 c 2
 366 242 l 2xbc
 366 304 342 339 277 339 c 0xbc
 248 339 210 320 189 308 c 0
 169 297 166 293 166 278 c 2
 166 70 l 2
 166 29 168 34 209 29 c 0
 223 27 228 30 228 13 c 0
 228 6 226 -1 212 -1 c 0
 198 -1 155 0 128 0 c 0
 100 0 59 -1 33 -1 c 0
 16 -1 13 4 13 13 c 0
 13 24 22 28 39 31 c 0
 85 38 88 31 88 72 c 2
 88 314 l 2
 88 323 88 324 67 326 c 0
 57 327 35 329 35 340 c 0
 35 353 47 355 65 362 c 0
 90 371 121 386 145 397 c 0
 150 399 158 403 163 403 c 0
 167 403 170 401 170 394 c 0
EndSplineSet
EndChar

StartChar: o
Encoding: 111 111 14
Width: 468
VWidth: 0
Flags: HW
HStem: -20 36<171.809 279.322> 372 35<168.728 281.6>
VStem: 23 87<92.4123 279.068> 344 93<102.437 288.165>
LayerCount: 3
Fore
SplineSet
436 193 m 0
 436 69 317 -20 228 -20 c 0
 118 -20 25 65 25 182 c 0
 25 308.229869994 117.179786007 406 241 406 c 0
 349 406 436 302 436 193 c 0
225 16 m 0
 312 16 344 117 344 203 c 0
 344 284 307 372 228 372 c 0
 152 372 109 289 109 213 c 0
 109 123 140 16 225 16 c 0
EndSplineSet
EndChar

StartChar: p
Encoding: 112 112 15
Width: 282
VWidth: 0
Flags: HW
LayerCount: 3
Fore
SplineSet
91 254 m 0
 91 282 113 304 141 304 c 0
 169 304 191 282 191 254 c 0
 191 226 169 204 141 204 c 0
 113 204 91 226 91 254 c 0
EndSplineSet
EndChar

StartChar: q
Encoding: 113 113 16
Width: 282
VWidth: 0
Flags: HW
LayerCount: 3
Fore
SplineSet
91 254 m 0
 91 282 113 304 141 304 c 0
 169 304 191 282 191 254 c 0
 191 226 169 204 141 204 c 0
 113 204 91 226 91 254 c 0
EndSplineSet
EndChar

StartChar: r
Encoding: 114 114 17
Width: 282
VWidth: 0
Flags: HW
LayerCount: 3
Fore
SplineSet
91 254 m 0
 91 282 113 304 141 304 c 0
 169 304 191 282 191 254 c 0
 191 226 169 204 141 204 c 0
 113 204 91 226 91 254 c 0
EndSplineSet
EndChar

StartChar: s
Encoding: 115 115 18
Width: 282
VWidth: 0
Flags: HW
LayerCount: 3
Fore
SplineSet
91 254 m 0
 91 282 113 304 141 304 c 0
 169 304 191 282 191 254 c 0
 191 226 169 204 141 204 c 0
 113 204 91 226 91 254 c 0
EndSplineSet
EndChar

StartChar: t
Encoding: 116 116 19
Width: 282
VWidth: 0
Flags: HW
LayerCount: 3
Fore
SplineSet
91 254 m 0
 91 282 113 304 141 304 c 0
 169 304 191 282 191 254 c 0
 191 226 169 204 141 204 c 0
 113 204 91 226 91 254 c 0
EndSplineSet
EndChar

StartChar: u
Encoding: 117 117 20
Width: 282
VWidth: 0
Flags: HW
LayerCount: 3
Fore
SplineSet
91 254 m 0
 91 282 113 304 141 304 c 0
 169 304 191 282 191 254 c 0
 191 226 169 204 141 204 c 0
 113 204 91 226 91 254 c 0
EndSplineSet
EndChar

StartChar: v
Encoding: 118 118 21
Width: 282
VWidth: 0
Flags: HW
LayerCount: 3
Fore
SplineSet
91 254 m 0
 91 282 113 304 141 304 c 0
 169 304 191 282 191 254 c 0
 191 226 169 204 141 204 c 0
 113 204 91 226 91 254 c 0
EndSplineSet
EndChar

StartChar: w
Encoding: 119 119 22
Width: 282
VWidth: 0
Flags: HW
LayerCount: 3
Fore
SplineSet
91 254 m 0
 91 282 113 304 141 304 c 0
 169 304 191 282 191 254 c 0
 191 226 169 204 141 204 c 0
 113 204 91 226 91 254 c 0
EndSplineSet
EndChar

StartChar: x
Encoding: 120 120 23
Width: 282
VWidth: 0
Flags: HW
LayerCount: 3
Fore
SplineSet
91 254 m 0
 91 282 113 304 141 304 c 0
 169 304 191 282 191 254 c 0
 191 226 169 204 141 204 c 0
 113 204 91 226 91 254 c 0
EndSplineSet
EndChar

StartChar: y
Encoding: 121 121 24
Width: 282
VWidth: 0
Flags: HW
LayerCount: 3
Fore
SplineSet
91 254 m 0
 91 282 113 304 141 304 c 0
 169 304 191 282 191 254 c 0
 191 226 169 204 141 204 c 0
 113 204 91 226 91 254 c 0
EndSplineSet
EndChar

StartChar: z
Encoding: 122 122 25
Width: 282
VWidth: 0
Flags: HW
LayerCount: 3
Fore
SplineSet
91 254 m 0
 91 282 113 304 141 304 c 0
 169 304 191 282 191 254 c 0
 191 226 169 204 141 204 c 0
 113 204 91 226 91 254 c 0
EndSplineSet
EndChar

StartChar: zero
Encoding: 48 48 52
Width: 282
VWidth: 0
Flags: HW
LayerCount: 3
Fore
SplineSet
91 254 m 0
 91 282 113 304 141 304 c 0
 169 304 191 282 191 254 c 0
 191 226 169 204 141 204 c 0
 113 204 91 226 91 254 c 0
EndSplineSet
EndChar

StartChar: one
Encoding: 49 49 53
Width: 282
VWidth: 0
Flags: HW
LayerCount: 3
Fore
SplineSet
91 254 m 0
 91 282 113 304 141 304 c 0
 169 304 191 282 191 254 c 0
 191 226 169 204 141 204 c 0
 113 204 91 226 91 254 c 0
EndSplineSet
EndChar

StartChar: two
Encoding: 50 50 54
Width: 282
VWidth: 0
Flags: HW
LayerCount: 3
Fore
SplineSet
91 254 m 0
 91 282 113 304 141 304 c 0
 169 304 191 282 191 254 c 0
 191 226 169 204 141 204 c 0
 113 204 91 226 91 254 c 0
EndSplineSet
EndChar

StartChar: three
Encoding: 51 51 55
Width: 282
VWidth: 0
Flags: HW
LayerCount: 3
Fore
SplineSet
91 254 m 0
 91 282 113 304 141 304 c 0
 169 304 191 282 191 254 c 0
 191 226 169 204 141 204 c 0
 113 204 91 226 91 254 c 0
EndSplineSet
EndChar

StartChar: four
Encoding: 52 52 56
Width: 282
VWidth: 0
Flags: HW
LayerCount: 3
Fore
SplineSet
91 254 m 0
 91 282 113 304 141 304 c 0
 169 304 191 282 191 254 c 0
 191 226 169 204 141 204 c 0
 113 204 91 226 91 254 c 0
EndSplineSet
EndChar

StartChar: five
Encoding: 53 53 57
Width: 282
VWidth: 0
Flags: HW
LayerCount: 3
Fore
SplineSet
91 254 m 0
 91 282 113 304 141 304 c 0
 169 304 191 282 191 254 c 0
 191 226 169 204 141 204 c 0
 113 204 91 226 91 254 c 0
EndSplineSet
EndChar

StartChar: six
Encoding: 54 54 58
Width: 282
VWidth: 0
Flags: HW
LayerCount: 3
Fore
SplineSet
91 254 m 0
 91 282 113 304 141 304 c 0
 169 304 191 282 191 254 c 0
 191 226 169 204 141 204 c 0
 113 204 91 226 91 254 c 0
EndSplineSet
EndChar

StartChar: seven
Encoding: 55 55 59
Width: 282
VWidth: 0
Flags: HW
LayerCount: 3
Fore
SplineSet
91 254 m 0
 91 282 113 304 141 304 c 0
 169 304 191 282 191 254 c 0
 191 226 169 204 141 204 c 0
 113 204 91 226 91 254 c 0
EndSplineSet
EndChar

StartChar: eight
Encoding: 56 56 60
Width: 282
VWidth: 0
Flags: HW
LayerCount: 3
Fore
SplineSet
91 254 m 0
 91 282 113 304 141 304 c 0
 169 304 191 282 191 254 c 0
 191 226 169 204 141 204 c 0
 113 204 91 226 91 254 c 0
EndSplineSet
EndChar

StartChar: nine
Encoding: 57 57 61
Width: 282
VWidth: 0
Flags: HW
LayerCount: 3
Fore
SplineSet
91 254 m 0
 91 282 113 304 141 304 c 0
 169 304 191 282 191 254 c 0
 191 226 169 204 141 204 c 0
 113 204 91 226 91 254 c 0
EndSplineSet
EndChar

StartChar: f.001
Encoding: 65536 -1 63
Width: 334
VWidth: 0
Flags: W
HStem: -4 32<42 116.978 205.215 306> 339 45<42 119 197 323> 636 46<253.068 357.323>
VStem: 121 74<37.7822 339 384 528.216>
LayerCount: 3
Fore
SplineSet
195 384 m 1
 323 384 l 1
 323 339 l 1
 197 339 l 1
 197 236 l 2
 197 178 195 129 195 86 c 2
 195 70 l 2
 195 33 224 32 306 28 c 1
 306 -4 l 1
 247 -4 194 0 160 0 c 0
 124 0 91 -4 42 -4 c 1
 42 28 l 1
 113 30 121 32 121 70 c 2
 121 86 l 2
 121 129 119 178 119 236 c 2
 119 339 l 1
 42 339 l 1
 42 384 l 1
 121 384 l 1
 121 512 154 575 206 626 c 0
 241 660 285 682 345 682 c 0
 388 682 446 668 446 625 c 0
 446 601 426 588 411 588 c 0
 367 588 357 636 298 636 c 0
 234 636 195 580 195 457 c 2
 195 384 l 1
EndSplineSet
Layer: 2
SplineSet
195 344 m 5
 195 70 l 6
 195 31 227 32 309 28 c 5
 309 -4 l 5
 250 -4 194 0 160 0 c 4
 124 0 78 -4 40 -4 c 5
 40 28 l 5
 112 30 121 32 121 70 c 6
 121 344 l 5
 40 344 l 5
 40 389 l 5
 121 389 l 5
 121 555 201 682 345 682 c 4
 388 682 446 668 446 625 c 4
 446 601 426 588 411 588 c 4
 367 588 357 636 298 636 c 4
 242 636 195 585 195 449 c 6
 195 389 l 5
 323 389 l 5
 323 344 l 5
 195 344 l 5
EndSplineSet
EndChar
